<?xml version="1.0" standalone="no"?>
<!DOCTYPE svg PUBLIC "-//W3C//DTD SVG 20010904//EN"
 "http://www.w3.org/TR/2001/REC-SVG-20010904/DTD/svg10.dtd">
<svg version="1.0" xmlns="http://www.w3.org/2000/svg"
 width="700.000000pt" height="700.000000pt" viewBox="0 0 700.000000 700.000000"
 preserveAspectRatio="xMidYMid meet">
<metadata>
Created by potrace 1.11, written by Peter Selinger 2001-2013
</metadata>
<g transform="translate(0.000000,700.000000) scale(0.100000,-0.100000)"
fill="#000000" stroke="none">
<path d="M5857 6884 c-1 -1 -59 -5 -129 -8 -71 -4 -138 -9 -150 -11 -13 -2
-49 -6 -81 -10 -32 -3 -79 -10 -105 -15 -26 -5 -63 -12 -83 -14 -70 -10 -345
-85 -444 -121 -261 -94 -498 -211 -717 -352 -74 -48 -230 -158 -269 -190 -11
-10 -29 -25 -39 -33 -9 -8 -38 -32 -62 -52 -25 -21 -94 -85 -154 -142 l-108
-104 -55 52 c-31 29 -76 71 -101 92 -25 21 -47 42 -50 45 -3 3 -45 37 -95 75
-366 283 -769 485 -1205 601 -77 21 -74 20 -190 43 -58 12 -113 23 -122 25 -9
2 -41 6 -70 10 -29 3 -68 7 -87 10 -47 6 -259 16 -432 20 l-146 3 1 -2456 1
-2457 197 -1 c173 0 198 2 199 15 0 9 1 703 1 1543 l1 1528 41 -6 c64 -9 195
-41 261 -65 140 -49 354 -172 445 -255 152 -138 257 -262 319 -374 143 -261
184 -428 206 -840 3 -58 8 -121 10 -140 2 -19 7 -62 10 -95 6 -69 12 -111 34
-255 14 -88 76 -328 108 -420 115 -331 287 -663 481 -928 l53 -73 -118 -118
c-240 -238 -522 -431 -849 -580 -180 -83 -479 -181 -619 -205 -16 -2 -55 -9
-85 -15 -140 -26 -303 -37 -596 -40 l-101 -1 0 -201 -1 -202 212 7 c116 4 225
9 241 11 17 1 64 6 105 10 702 61 1422 399 1961 922 58 57 109 103 113 103 4
0 51 -39 104 -87 135 -121 147 -130 237 -198 341 -258 733 -454 1120 -560 135
-37 339 -81 420 -90 28 -3 66 -8 86 -10 59 -7 197 -14 399 -20 l190 -6 0 2458
0 2459 -187 -2 c-104 0 -194 -2 -200 -3 -10 -1 -13 -304 -13 -1480 l0 -1480
-27 4 c-40 5 -96 15 -113 20 -8 2 -29 7 -46 10 -65 11 -252 79 -319 118 -11 6
-39 21 -62 34 -154 82 -374 285 -474 438 -58 88 -145 268 -173 360 -42 135
-45 161 -61 483 -7 135 -16 233 -31 322 -13 84 -46 247 -64 315 -12 44 -25 96
-30 116 -46 179 -190 512 -313 724 -44 76 -158 257 -167 265 -3 3 -24 31 -47
63 l-40 58 67 67 c96 96 178 171 235 217 28 22 52 42 55 45 10 10 117 88 180
131 69 48 259 159 347 203 107 54 397 164 503 192 129 33 255 59 335 69 28 4
57 8 65 10 30 8 308 21 513 24 l67 1 0 201 0 200 -146 -3 c-80 -2 -146 -4
-147 -4z"/>
</g>
</svg>
